<?xml version="1.0" encoding="utf-8"?>
<!-- Generator: Adobe Illustrator 16.0.0, SVG Export Plug-In . SVG Version: 6.00 Build 0)  -->
<!DOCTYPE svg PUBLIC "-//W3C//DTD SVG 1.1//EN" "http://www.w3.org/Graphics/SVG/1.1/DTD/svg11.dtd">
<svg version="1.1" id="Layer_1" xmlns="http://www.w3.org/2000/svg" xmlns:xlink="http://www.w3.org/1999/xlink" x="0px" y="0px"
	 width="240px" height="180px" viewBox="0 0 240 180" style="enable-background:new 0 0 240 180;" xml:space="preserve">
<g id="branding">
	<g>
		<path style="fill:#ECF0F1;" d="M179.476,1H80.132c-3.436,0-6.221,2.786-6.221,6.222v161.765c0,3.439,2.785,6.222,6.221,6.222
			h118.216c3.433,0,6.222-2.782,6.222-6.222V26.24L179.476,1z"/>
		<path style="fill:#38A4DD;" d="M204.569,26.24h-18.872c-3.438,0-6.222-2.786-6.222-6.222V1"/>
	</g>
	<path style="fill:#38A4DD;" d="M113.577,17.902c0,2.365-1.917,4.282-4.281,4.282H84.574c-2.367,0-4.284-1.917-4.284-4.282l0,0
		c0-2.365,1.917-4.282,4.284-4.282h24.723C111.66,13.62,113.577,15.537,113.577,17.902L113.577,17.902z"/>
	<path style="fill:#455B65;" d="M144.441,27.844c0,0.886-0.717,1.604-1.604,1.604H81.894c-0.887,0-1.604-0.718-1.604-1.604l0,0
		c0-0.885,0.717-1.604,1.604-1.604h60.943C143.725,26.24,144.441,26.958,144.441,27.844L144.441,27.844z"/>
	<path style="fill:#D1D3D4;" d="M179.476,36.71c0,1.002-0.814,1.815-1.816,1.815H82.107c-1.003,0-1.817-0.813-1.817-1.815l0,0
		c0-1.002,0.814-1.815,1.817-1.815h95.552C178.661,34.895,179.476,35.708,179.476,36.71L179.476,36.71z"/>
	<path style="fill:#D1D3D4;" d="M179.476,46.043c0,1.002-0.814,1.815-1.816,1.815H82.107c-1.003,0-1.817-0.813-1.817-1.815l0,0
		c0-1.002,0.814-1.816,1.817-1.816h95.552C178.661,44.227,179.476,45.041,179.476,46.043L179.476,46.043z"/>
	<path style="fill:#D1D3D4;" d="M136.579,55.375c0,1.002-0.461,1.815-1.033,1.815H81.32c-0.568,0-1.03-0.813-1.03-1.815l0,0
		c0-1.002,0.462-1.815,1.03-1.815h54.226C136.118,53.56,136.579,54.373,136.579,55.375L136.579,55.375z"/>
	<g>
		<path style="fill:#455B65;" d="M225.646,127.288c-1.16,3.235-4.727,4.911-7.959,3.749l-61.191-22.008
			c-3.232-1.161-4.915-4.728-3.749-7.959l9.643-26.818c1.161-3.232,4.728-4.912,7.96-3.749l61.191,22.007
			c3.231,1.163,4.915,4.729,3.749,7.961L225.646,127.288z"/>
		<path style="fill:#ECF0F1;" d="M217.608,117.083c-0.395,1.104-1.61,1.674-2.71,1.279l-48.183-17.332
			c-1.1-0.395-1.67-1.606-1.275-2.71l0,0c0.396-1.1,1.61-1.671,2.71-1.272l48.183,17.329
			C217.433,114.771,218.003,115.986,217.608,117.083L217.608,117.083z"/>
		<path style="fill:#ECF0F1;" d="M179.312,89.309c-0.711,1.98-2.892,3.007-4.872,2.296l-2.243-0.808
			c-1.98-0.713-3.008-2.894-2.296-4.874l0.808-2.247c0.711-1.983,2.892-3.009,4.873-2.297l2.248,0.809
			c1.98,0.711,3.008,2.892,2.29,4.873L179.312,89.309z"/>
		<path style="fill:#26B99A;" d="M192.982,94.225c-0.711,1.981-2.892,3.009-4.873,2.294l-2.248-0.805
			c-1.98-0.714-3.007-2.895-2.29-4.876l0.808-2.247c0.711-1.982,2.893-3.009,4.873-2.296l2.241,0.809
			c1.981,0.711,3.009,2.892,2.298,4.873L192.982,94.225z"/>
	</g>
	<g>
		<path style="fill:#38A4DD;" d="M235.945,91.756c0,3.436-2.788,6.221-6.221,6.221h-65.031c-3.434,0-6.223-2.785-6.223-6.221v-28.5
			c0-3.436,2.789-6.221,6.223-6.221h65.031c3.433,0,6.221,2.785,6.221,6.221V91.756z"/>
		<path style="fill:#ECF0F1;" d="M224.931,84.871c0,1.172-0.948,2.121-2.121,2.121h-51.202c-1.173,0-2.12-0.948-2.12-2.121l0,0
			c0-1.167,0.947-2.114,2.12-2.114h51.202C223.982,82.757,224.931,83.705,224.931,84.871L224.931,84.871z"/>
		<path style="fill:#ECF0F1;" d="M179.493,71.696c0,2.105-1.707,3.809-3.81,3.809h-2.387c-2.103,0-3.81-1.704-3.81-3.809v-2.388
			c0-2.105,1.707-3.81,3.81-3.81h2.387c2.103,0,3.81,1.705,3.81,3.81V71.696z"/>
		<path style="fill:#455B65;" d="M194.015,71.696c0,2.105-1.7,3.809-3.809,3.809h-2.382c-2.108,0-3.811-1.704-3.811-3.809v-2.388
			c0-2.105,1.702-3.81,3.811-3.81h2.382c2.108,0,3.809,1.705,3.809,3.81V71.696z"/>
	</g>
	<g>
		<path style="fill:#455B65;" d="M159.917,172.779c0,3.436-2.788,6.221-6.222,6.221H10.277c-3.436,0-6.222-2.785-6.222-6.221
			v-48.608c0-3.437,2.786-6.223,6.222-6.223h143.418c3.434,0,6.222,2.786,6.222,6.223V172.779z"/>
		<path style="fill:#38A4DD;" d="M11.075,117.948l66.511,44.738c2.43,2.424,6.37,2.424,8.798,0l66.514-44.738H11.075z"/>
	</g>
	<g>
		<path style="fill:#ECF0F1;" d="M52.994,27.844c-2.898,0-5.25,2.35-5.25,5.25v3.617h10.499v-3.617
			C58.243,30.193,55.892,27.844,52.994,27.844z"/>
		<path style="fill:#ECF0F1;" d="M47.744,100.435v5.044c0,2.898,5.25,5.25,5.25,5.25s5.25-2.352,5.25-5.25v-5.044H47.744z"/>
		<rect x="47.744" y="36.204" style="fill:#38A4DD;" width="10.499" height="64.23"/>
		<path style="fill:#455B65;" d="M52.997,108.267c-0.681,0-1.23,0.626-1.23,1.395v0.42c0.699,0.397,1.227,0.647,1.227,0.647
			s0.529-0.25,1.228-0.647v-0.42C54.221,108.893,53.671,108.267,52.997,108.267z"/>
		<rect x="47.37" y="35.641" style="fill:#D1D3D4;" width="11.247" height="1.944"/>
	</g>
</g>
</svg>
