<?xml version="1.0" encoding="utf-8"?>
<!-- Generator: Adobe Illustrator 16.0.0, SVG Export Plug-In . SVG Version: 6.00 Build 0)  -->
<!DOCTYPE svg PUBLIC "-//W3C//DTD SVG 1.1//EN" "http://www.w3.org/Graphics/SVG/1.1/DTD/svg11.dtd">
<svg version="1.1" id="Layer_1" xmlns="http://www.w3.org/2000/svg" xmlns:xlink="http://www.w3.org/1999/xlink" x="0px" y="0px"
	 width="253.032px" height="180px" viewBox="0 0 253.032 180" style="enable-background:new 0 0 253.032 180;" xml:space="preserve"
	>
<g>
	<path style="fill:#455B65;" d="M184.608,54.684H38.321c-2.92,0-5.288,2.365-5.288,5.288v95.175h156.861V59.972
		C189.895,57.049,187.527,54.684,184.608,54.684z"/>
	<rect x="37.33" y="61.745" style="fill:#38A4DD;" width="148.271" height="86.338"/>
	<path style="fill:#D1D3D4;" d="M215.924,155.146v4.531c0,2.92-2.367,5.288-5.286,5.288H12.292c-2.92,0-5.288-2.368-5.288-5.288
		v-4.531"/>
	<path style="fill:#455B65;" d="M70.242,68.85c0,0.997-0.503,1.803-1.121,1.803H41.951c-0.617,0-1.121-0.806-1.121-1.803l0,0
		c0-0.991,0.504-1.796,1.121-1.796h27.171C69.739,67.054,70.242,67.859,70.242,68.85L70.242,68.85z"/>
	<path style="fill:#ECF0F1;" d="M75.529,75.021c0,0.997-0.503,1.803-1.12,1.803H47.238c-0.617,0-1.121-0.806-1.121-1.803l0,0
		c0-0.991,0.504-1.796,1.121-1.796h27.171C75.026,73.224,75.529,74.03,75.529,75.021L75.529,75.021z"/>
	<path style="fill:#ECF0F1;" d="M82.162,80.309c0,0.996-0.617,1.802-1.374,1.802H47.491c-0.757,0-1.374-0.806-1.374-1.802l0,0
		c0-0.992,0.617-1.797,1.374-1.797h33.297C81.545,78.511,82.162,79.317,82.162,80.309L82.162,80.309z"/>
	<path style="fill:#ECF0F1;" d="M79.738,85.596c0,0.996-0.576,1.802-1.281,1.802H47.398c-0.705,0-1.281-0.806-1.281-1.802l0,0
		c0-0.992,0.576-1.797,1.281-1.797h31.059C79.162,83.799,79.738,84.604,79.738,85.596L79.738,85.596z"/>
	<path style="fill:#455B65;" d="M70.242,95.288c0,0.996-0.503,1.802-1.121,1.802H41.951c-0.617,0-1.121-0.806-1.121-1.802l0,0
		c0-0.992,0.504-1.797,1.121-1.797h27.171C69.739,93.491,70.242,94.296,70.242,95.288L70.242,95.288z"/>
	<path style="fill:#ECF0F1;" d="M75.529,101.458c0,0.997-0.503,1.803-1.12,1.803H47.238c-0.617,0-1.121-0.806-1.121-1.803l0,0
		c0-0.991,0.504-1.797,1.121-1.797h27.171C75.026,99.661,75.529,100.467,75.529,101.458L75.529,101.458z"/>
	<path style="fill:#ECF0F1;" d="M82.162,106.746c0,0.996-0.617,1.802-1.374,1.802H47.491c-0.757,0-1.374-0.806-1.374-1.802l0,0
		c0-0.992,0.617-1.797,1.374-1.797h33.297C81.545,104.949,82.162,105.754,82.162,106.746L82.162,106.746z"/>
	<path style="fill:#ECF0F1;" d="M75.529,117.321c0,0.996-0.503,1.801-1.12,1.801H47.238c-0.617,0-1.121-0.805-1.121-1.801l0,0
		c0-0.991,0.504-1.798,1.121-1.798h27.171C75.026,115.523,75.529,116.33,75.529,117.321L75.529,117.321z"/>
	<path style="fill:#ECF0F1;" d="M82.162,122.608c0,0.997-0.617,1.802-1.374,1.802H47.491c-0.757,0-1.374-0.805-1.374-1.802l0,0
		c0-0.991,0.617-1.797,1.374-1.797h33.297C81.545,120.812,82.162,121.617,82.162,122.608L82.162,122.608z"/>
	<path style="fill:#ECF0F1;" d="M79.738,112.033c0,0.997-0.576,1.803-1.281,1.803H47.398c-0.705,0-1.281-0.806-1.281-1.803l0,0
		c0-0.991,0.576-1.796,1.281-1.796h31.059C79.162,110.237,79.738,111.042,79.738,112.033L79.738,112.033z"/>
	<path style="fill:#ECF0F1;" d="M82.162,127.896c0,0.997-0.617,1.803-1.374,1.803H47.491c-0.757,0-1.374-0.806-1.374-1.803l0,0
		c0-0.991,0.617-1.797,1.374-1.797h33.297C81.545,126.099,82.162,126.904,82.162,127.896L82.162,127.896z"/>
	<path style="fill:#ECF0F1;" d="M79.738,133.184c0,0.996-0.576,1.802-1.281,1.802H47.398c-0.705,0-1.281-0.806-1.281-1.802l0,0
		c0-0.992,0.576-1.797,1.281-1.797h31.059C79.162,131.387,79.738,132.191,79.738,133.184L79.738,133.184z"/>
	<path style="fill:#ECF0F1;" d="M241.12,143.761c0,2.92-2.371,5.287-5.288,5.287H135.371c-2.923,0-5.289-2.367-5.289-5.287V6.287
		c0-2.92,2.366-5.287,5.289-5.287h100.461c2.917,0,5.288,2.367,5.288,5.287V143.761z"/>
	<path style="fill:#D1D3D4;" d="M235.832,1H135.371c-2.923,0-5.289,2.367-5.289,5.287v4.326H241.12V6.287
		C241.12,3.367,238.749,1,235.832,1z"/>
	<path style="fill:#ECF0F1;" d="M130.082,143.761c0,2.92,2.366,5.287,5.289,5.287h100.461c2.917,0,5.288-2.367,5.288-5.287V10.613
		H130.082V143.761z"/>
	<path style="fill:#38A4DD;" d="M218.622,17.558c0,0.853-0.689,1.544-1.54,1.544h-81.208c-0.853,0-1.542-0.692-1.542-1.544l0,0
		c0-0.852,0.689-1.541,1.542-1.541h81.208C217.933,16.017,218.622,16.706,218.622,17.558L218.622,17.558z"/>
	<path style="fill:#455B65;" d="M231.841,22.846c0,0.852-0.689,1.544-1.54,1.544h-81.208c-0.853,0-1.542-0.692-1.542-1.544l0,0
		c0-0.853,0.689-1.542,1.542-1.542h81.208C231.151,21.304,231.841,21.993,231.841,22.846L231.841,22.846z"/>
	<path style="fill:#455B65;" d="M231.841,28.133c0,0.852-0.689,1.543-1.54,1.543h-81.208c-0.853,0-1.542-0.692-1.542-1.543l0,0
		c0-0.852,0.689-1.542,1.542-1.542h81.208C231.151,26.592,231.841,27.281,231.841,28.133L231.841,28.133z"/>
	<path style="fill:#455B65;" d="M231.841,33.42c0,0.852-0.689,1.544-1.54,1.544h-81.208c-0.853,0-1.542-0.692-1.542-1.544l0,0
		c0-0.852,0.689-1.541,1.542-1.541h81.208C231.151,31.879,231.841,32.569,231.841,33.42L231.841,33.42z"/>
	<path style="fill:#455B65;" d="M231.841,38.708c0,0.852-0.689,1.544-1.54,1.544h-81.208c-0.853,0-1.542-0.692-1.542-1.544l0,0
		c0-0.852,0.689-1.541,1.542-1.541h81.208C231.151,37.167,231.841,37.856,231.841,38.708L231.841,38.708z"/>
	<path style="fill:#38A4DD;" d="M218.622,49.283c0,0.853-0.689,1.544-1.54,1.544h-81.208c-0.853,0-1.542-0.692-1.542-1.544l0,0
		c0-0.852,0.689-1.541,1.542-1.541h81.208C217.933,47.742,218.622,48.431,218.622,49.283L218.622,49.283z"/>
	<path style="fill:#455B65;" d="M231.841,54.571c0,0.852-0.689,1.544-1.54,1.544h-81.208c-0.853,0-1.542-0.692-1.542-1.544l0,0
		c0-0.853,0.689-1.542,1.542-1.542h81.208C231.151,53.029,231.841,53.718,231.841,54.571L231.841,54.571z"/>
	<path style="fill:#455B65;" d="M231.841,59.858c0,0.852-0.689,1.544-1.54,1.544h-81.208c-0.853,0-1.542-0.692-1.542-1.544l0,0
		c0-0.852,0.689-1.541,1.542-1.541h81.208C231.151,58.317,231.841,59.006,231.841,59.858L231.841,59.858z"/>
	<path style="fill:#455B65;" d="M231.841,65.146c0,0.852-0.689,1.544-1.54,1.544h-81.208c-0.853,0-1.542-0.692-1.542-1.544l0,0
		c0-0.852,0.689-1.541,1.542-1.541h81.208C231.151,63.604,231.841,64.293,231.841,65.146L231.841,65.146z"/>
	<path style="fill:#455B65;" d="M231.841,70.433c0,0.852-0.689,1.543-1.54,1.543h-81.208c-0.853,0-1.542-0.692-1.542-1.543l0,0
		c0-0.852,0.689-1.542,1.542-1.542h81.208C231.151,68.892,231.841,69.581,231.841,70.433L231.841,70.433z"/>
	<path style="fill:#38A4DD;" d="M218.622,81.008c0,0.853-0.689,1.544-1.54,1.544h-81.208c-0.853,0-1.542-0.692-1.542-1.544l0,0
		c0-0.852,0.689-1.541,1.542-1.541h81.208C217.933,79.467,218.622,80.156,218.622,81.008L218.622,81.008z"/>
	<path style="fill:#455B65;" d="M231.841,86.296c0,0.852-0.689,1.543-1.54,1.543h-81.208c-0.853,0-1.542-0.692-1.542-1.543l0,0
		c0-0.853,0.689-1.542,1.542-1.542h81.208C231.151,84.754,231.841,85.443,231.841,86.296L231.841,86.296z"/>
	<path style="fill:#455B65;" d="M231.841,91.583c0,0.852-0.689,1.544-1.54,1.544h-81.208c-0.853,0-1.542-0.692-1.542-1.544l0,0
		c0-0.852,0.689-1.541,1.542-1.541h81.208C231.151,90.042,231.841,90.731,231.841,91.583L231.841,91.583z"/>
	<path style="fill:#455B65;" d="M231.841,96.87c0,0.853-0.689,1.545-1.54,1.545h-81.208c-0.853,0-1.542-0.692-1.542-1.545l0,0
		c0-0.852,0.689-1.541,1.542-1.541h81.208C231.151,95.329,231.841,96.019,231.841,96.87L231.841,96.87z"/>
	<path style="fill:#455B65;" d="M231.841,102.158c0,0.852-0.689,1.544-1.54,1.544h-81.208c-0.853,0-1.542-0.692-1.542-1.544l0,0
		c0-0.853,0.689-1.541,1.542-1.541h81.208C231.151,100.617,231.841,101.306,231.841,102.158L231.841,102.158z"/>
	<path style="fill:#38A4DD;" d="M218.622,112.732c0,0.853-0.689,1.544-1.54,1.544h-81.208c-0.853,0-1.542-0.691-1.542-1.544l0,0
		c0-0.852,0.689-1.541,1.542-1.541h81.208C217.933,111.191,218.622,111.881,218.622,112.732L218.622,112.732z"/>
	<path style="fill:#455B65;" d="M231.841,118.021c0,0.853-0.689,1.544-1.54,1.544h-81.208c-0.853,0-1.542-0.691-1.542-1.544l0,0
		c0-0.852,0.689-1.541,1.542-1.541h81.208C231.151,116.479,231.841,117.169,231.841,118.021L231.841,118.021z"/>
	<path style="fill:#455B65;" d="M231.841,123.308c0,0.852-0.689,1.545-1.54,1.545h-81.208c-0.853,0-1.542-0.693-1.542-1.545l0,0
		c0-0.852,0.689-1.541,1.542-1.541h81.208C231.151,121.767,231.841,122.456,231.841,123.308L231.841,123.308z"/>
	<path style="fill:#455B65;" d="M231.841,128.596c0,0.852-0.689,1.544-1.54,1.544h-81.208c-0.853,0-1.542-0.692-1.542-1.544l0,0
		c0-0.852,0.689-1.541,1.542-1.541h81.208C231.151,127.055,231.841,127.744,231.841,128.596L231.841,128.596z"/>
	<path style="fill:#455B65;" d="M231.841,133.884c0,0.852-0.689,1.544-1.54,1.544h-81.208c-0.853,0-1.542-0.692-1.542-1.544l0,0
		c0-0.854,0.689-1.543,1.542-1.543h81.208C231.151,132.341,231.841,133.03,231.841,133.884L231.841,133.884z"/>
	<g>
		<path style="fill:#455B65;" d="M212.09,168.527v0.094l8.938,3.129v4.213l-13.353-5.685v-3.485l13.353-5.669v4.213L212.09,168.527z
			"/>
		<path style="fill:#455B65;" d="M227.18,179h-4.401l8.273-24.491h4.399L227.18,179z"/>
		<path style="fill:#455B65;" d="M246.696,168.559v-0.092l-9.077-3.176v-4.167l13.508,5.669v3.485l-13.508,5.685v-4.182
			L246.696,168.559z"/>
	</g>
	<g>
		<path style="fill:#455B65;" d="M34.872,34.978l-5.197,0.25l-0.852,3.243l-3,0.145l4.384-15.055l3.041-0.147l5.783,14.569l-3,0.142
			L34.872,34.978z M30.296,32.863l3.731-0.178l-2.112-5.727l-0.057,0.003L30.296,32.863z"/>
		<path style="fill:#455B65;" d="M44.646,33.715c-0.039-0.8,0.147-1.5,0.563-2.102c0.413-0.602,1.053-1.239,1.929-1.91
			c-0.494-0.604-0.868-1.157-1.118-1.658c-0.251-0.506-0.39-1.027-0.416-1.56c-0.054-1.175,0.266-2.13,0.965-2.868
			c0.697-0.736,1.66-1.133,2.887-1.193c1.077-0.051,1.97,0.243,2.674,0.878c0.713,0.635,1.085,1.428,1.131,2.375
			c0.031,0.664-0.103,1.278-0.41,1.846c-0.307,0.565-0.739,1.066-1.296,1.507l-0.915,0.718l2.967,3.14
			c0.225-0.418,0.395-0.87,0.506-1.35c0.111-0.48,0.158-0.984,0.132-1.513l2.215-0.106c0.044,0.933-0.03,1.8-0.222,2.597
			c-0.191,0.798-0.511,1.513-0.955,2.146l2.233,2.377l-0.018,0.057l-3.295,0.157l-0.826-0.87c-0.558,0.4-1.139,0.71-1.74,0.924
			c-0.599,0.217-1.25,0.341-1.95,0.375c-1.477,0.07-2.672-0.261-3.583-0.997C45.191,35.953,44.706,34.962,44.646,33.715z
			 M49.732,35.388c0.359-0.018,0.715-0.08,1.071-0.188c0.356-0.111,0.695-0.261,1.015-0.46l-3.219-3.384l-0.186,0.142
			c-0.331,0.338-0.55,0.668-0.658,0.979c-0.114,0.317-0.161,0.63-0.145,0.937c0.029,0.604,0.238,1.092,0.627,1.461
			C48.63,35.243,49.128,35.416,49.732,35.388z M48.258,26.326c0.013,0.289,0.101,0.588,0.261,0.888
			c0.16,0.302,0.395,0.632,0.705,0.992l0.847-0.612c0.367-0.263,0.615-0.524,0.733-0.79c0.119-0.261,0.173-0.547,0.158-0.852
			c-0.016-0.341-0.155-0.633-0.416-0.889c-0.259-0.25-0.592-0.369-0.989-0.351c-0.441,0.023-0.772,0.186-0.997,0.494
			C48.338,25.51,48.237,25.884,48.258,26.326z"/>
		<path style="fill:#455B65;" d="M58.335,33.057c-0.039-0.798,0.147-1.498,0.56-2.099s1.059-1.239,1.928-1.913
			c-0.493-0.602-0.865-1.154-1.112-1.658c-0.253-0.503-0.392-1.025-0.418-1.56c-0.054-1.172,0.266-2.129,0.963-2.866
			c0.7-0.735,1.66-1.133,2.886-1.192c1.077-0.052,1.97,0.243,2.677,0.878c0.71,0.635,1.084,1.425,1.131,2.375
			c0.031,0.664-0.106,1.275-0.413,1.843c-0.307,0.565-0.736,1.066-1.293,1.51l-0.914,0.715l2.967,3.142
			c0.224-0.421,0.395-0.87,0.506-1.35c0.111-0.483,0.155-0.986,0.129-1.513l2.218-0.109c0.044,0.935-0.031,1.802-0.222,2.6
			c-0.191,0.798-0.512,1.513-0.958,2.143l2.236,2.38l-0.021,0.054l-3.294,0.16l-0.827-0.87c-0.555,0.4-1.135,0.71-1.737,0.924
			c-0.602,0.214-1.25,0.341-1.952,0.374c-1.477,0.07-2.669-0.261-3.581-0.996C58.882,35.297,58.394,34.306,58.335,33.057z
			 M63.416,34.732c0.364-0.018,0.72-0.083,1.072-0.188c0.361-0.111,0.7-0.261,1.017-0.459l-3.217-3.385l-0.188,0.142
			c-0.328,0.338-0.55,0.669-0.656,0.979c-0.114,0.315-0.163,0.627-0.147,0.938c0.028,0.604,0.237,1.089,0.63,1.461
			C62.316,34.588,62.816,34.761,63.416,34.732z M61.944,25.67c0.013,0.29,0.101,0.586,0.261,0.888
			c0.166,0.302,0.398,0.633,0.708,0.992l0.845-0.612c0.366-0.264,0.614-0.527,0.735-0.79c0.119-0.261,0.173-0.548,0.158-0.853
			c-0.016-0.341-0.158-0.635-0.416-0.888c-0.258-0.25-0.591-0.369-0.991-0.351c-0.441,0.02-0.772,0.186-0.994,0.493
			C62.024,24.854,61.924,25.229,61.944,25.67z"/>
		<path style="fill:#455B65;" d="M78.161,36.105l-0.71-14.812l5.003-0.24c1.745-0.083,3.119,0.194,4.128,0.824
			c1.007,0.633,1.546,1.621,1.611,2.972c0.034,0.684-0.121,1.307-0.457,1.861c-0.338,0.558-0.847,0.986-1.523,1.291
			c0.898,0.147,1.58,0.521,2.058,1.123c0.473,0.604,0.73,1.314,0.77,2.138c0.07,1.415-0.349,2.509-1.25,3.287
			c-0.901,0.772-2.208,1.2-3.922,1.283L78.161,36.105z M80.716,27.359l2.138-0.104c0.793-0.039,1.397-0.229,1.81-0.576
			c0.408-0.346,0.601-0.832,0.573-1.454c-0.033-0.685-0.273-1.18-0.723-1.487c-0.447-0.302-1.095-0.434-1.949-0.395l-2.034,0.098
			L80.716,27.359z M80.814,29.411l0.207,4.262l2.736-0.131c0.785-0.039,1.381-0.238,1.776-0.599
			c0.397-0.361,0.578-0.875,0.548-1.546c-0.037-0.723-0.241-1.268-0.612-1.634c-0.366-0.364-0.932-0.532-1.691-0.493L80.814,29.411z
			"/>
		<path style="fill:#455B65;" d="M99.008,37.856l-1.789,0.085l-0.842-17.554l1.789-0.085L99.008,37.856z"/>
		<path style="fill:#455B65;" d="M104.288,37.603l-1.789,0.085l-0.842-17.554l1.79-0.085L104.288,37.603z"/>
		<path style="fill:#455B65;" d="M123.388,28.879l0.023,0.06c0.101,1.592-0.322,2.881-1.275,3.865
			c-0.958,0.983-2.323,1.516-4.1,1.601c-1.784,0.085-3.261-0.416-4.425-1.508c-1.165-1.095-1.792-2.541-1.879-4.345l-0.14-2.938
			c-0.088-1.797,0.382-3.299,1.415-4.5c1.027-1.206,2.411-1.851,4.146-1.934c1.828-0.088,3.284,0.312,4.361,1.203
			c1.072,0.889,1.637,2.146,1.688,3.767l-0.018,0.06l-2.892,0.139c-0.046-0.976-0.315-1.712-0.806-2.208
			c-0.493-0.496-1.234-0.72-2.225-0.673c-0.889,0.041-1.573,0.438-2.063,1.185c-0.488,0.744-0.705,1.676-0.651,2.793l0.143,2.959
			c0.054,1.131,0.371,2.044,0.957,2.736c0.584,0.697,1.343,1.022,2.277,0.976c0.933-0.044,1.606-0.328,2.024-0.847
			c0.418-0.519,0.606-1.268,0.561-2.254L123.388,28.879z"/>
	</g>
	<g>
		<polygon style="fill:#ECF0F1;" points="6.028,111.3 0.906,119.863 9.72,119.863 		"/>
		<polygon style="fill:#D1D3D4;" points="34.995,119.863 38.621,111.455 38.525,111.259 6.051,111.259 6.028,111.3 9.72,119.863 		
			"/>
		<polygon style="fill:#ECF0F1;" points="42.658,119.863 38.621,111.455 34.995,119.863 		"/>
		<polygon style="fill:#D1D3D4;" points="0.906,119.863 0.763,120.102 22.288,149.02 9.72,119.863 		"/>
		<polygon style="fill:#D1D3D4;" points="42.658,119.863 34.995,119.863 22.582,148.654 43.812,122.268 		"/>
		<polygon style="fill:#ECF0F1;" points="9.72,119.863 22.288,149.02 22.582,148.654 34.995,119.863 		"/>
	</g>
</g>
</svg>
