<svg xmlns="http://www.w3.org/2000/svg" version="1.1" id="crane"><style>.s0{fill:#FFF;}.s1{fill:#D0D8DC;}.s2{opacity:0.07;}.s3{fill:none;stroke-width:0.3922;stroke:#F1F2F2;}.s4{fill:none;stroke-linejoin:round;stroke-width:3.2672;stroke:#F0C419;}.s5{fill:#F0C419;}.s6{fill:#212121;opacity:0.1;}.s7{fill:#212121;opacity:0.07;}</style><polygon points="164.332 146.778 131.244 146.778 127.471 106.14 168.107 106.14 " fill="#FFF"/><rect x="130.264" y="86.159" transform="matrix(-0.7071 -0.7071 0.7071 -0.7071 201.228 260.1927)" width="48.471" height="4.527" fill="#D0D8DC"/><rect x="136.734" y="84.522" transform="matrix(-0.7071 -0.7071 0.7071 -0.7071 207.3883 257.6404)" width="40.638" height="2.693" fill="#FFF"/><polygon points="165.142 140.185 168.032 109.063 127.604 109.063 130.494 140.185 " fill="#44A9DF"/><path d="M145.679 120.338h-4.675v-3.735h13.888v3.735h-4.698v12.307h-4.515V120.338z" fill="#FFF"/><polygon points="147.947 106.14 147.947 146.778 164.332 146.778 167.823 109.201 167.823 109.201 168.107 106.14 " opacity="0.07"/><polygon points="170.469 101.188 172.373 99.284 158.119 85.029 153.012 90.137 170.037 107.16 173.237 103.958 " opacity="0.07"/><line x1="58.134" y1="1.086" x2="140.263" y2="20.833" class="s3"/><line x1="58.134" y1="1.086" x2="138.366" y2="23.11" class="s3"/><line x1="38.509" y1="16.546" x2="58.134" y2="1.086" class="s3"/><line x1="1.665" y1="16.546" x2="58.134" y2="1.086" class="s3"/><line x1="60.607" y1="121.429" x2="79.677" y2="140.497" class="s4"/><path d="M77.559 123.166v15.408H62.15v-15.408H77.559M81.574 119.15h-23.44v23.439h23.44V119.15L81.574 119.15z" fill="#F0C419"/><line x1="60.607" y1="121.429" x2="79.677" y2="140.497" class="s4"/><line x1="79.676" y1="121.429" x2="60.607" y2="140.497" class="s4"/><path d="M77.559 103.579v15.409H62.15v-15.409H77.559M81.574 99.563h-23.44v23.44h23.44V99.563L81.574 99.563z" fill="#F0C419"/><line x1="60.607" y1="101.843" x2="79.677" y2="120.911" class="s4"/><line x1="79.676" y1="101.843" x2="60.607" y2="120.911" class="s4"/><path d="M77.559 84.009v15.409H62.15V84.009H77.559M81.574 79.993h-23.44v23.44h23.44V79.993L81.574 79.993z" fill="#F0C419"/><line x1="60.607" y1="82.272" x2="79.677" y2="101.341" class="s4"/><line x1="79.676" y1="82.272" x2="60.607" y2="101.341" class="s4"/><path d="M77.559 44.603V60.01H62.15V44.603H77.559M81.574 40.587h-23.44v23.439h23.44V40.587L81.574 40.587z" fill="#F0C419"/><line x1="60.607" y1="42.864" x2="79.677" y2="61.933" class="s4"/><line x1="79.676" y1="42.864" x2="60.607" y2="61.933" class="s4"/><path d="M77.559 24.849v15.407H62.15V24.849H77.559M81.574 20.833h-23.44v23.439h23.44V20.833L81.574 20.833z" fill="#F0C419"/><line x1="60.607" y1="23.11" x2="79.677" y2="42.179" class="s4"/><line x1="79.676" y1="23.11" x2="60.607" y2="42.179" class="s4"/><path d="M96.923 24.849v15.407H81.515V24.849H96.923M100.938 20.833H77.499v23.439h23.439V20.833L100.938 20.833z" fill="#F0C419"/><line x1="79.972" y1="23.11" x2="99.041" y2="42.179" class="s4"/><line x1="99.041" y1="23.11" x2="79.971" y2="42.179" class="s4"/><path d="M116.883 24.849v15.407h-15.409V24.849H116.883M120.898 20.833h-23.44v23.439h23.44V20.833L120.898 20.833z" fill="#F0C419"/><line x1="99.933" y1="23.11" x2="119.001" y2="42.179" class="s4"/><line x1="119.001" y1="23.11" x2="99.933" y2="42.179" class="s4"/><path d="M136.247 24.849v15.407h-15.408V24.849H136.247M140.263 20.833h-23.439v23.439h23.439V20.833L140.263 20.833z" fill="#F0C419"/><line x1="119.297" y1="23.11" x2="138.366" y2="42.179" class="s4"/><line x1="138.366" y1="23.11" x2="119.296" y2="42.179" class="s4"/><path d="M57.933 24.849v15.407H42.525V24.849H57.933M61.949 20.833h-23.44v23.439h23.44V20.833L61.949 20.833z" fill="#F0C419"/><line x1="40.983" y1="23.11" x2="60.051" y2="42.179" class="s4"/><line x1="60.051" y1="23.11" x2="40.982" y2="42.179" class="s4"/><path d="M62.15 10.782l4.864 4.864 4.864 4.863H62.15V10.782M58.134 1.086v23.439h23.44l-11.72-11.719L58.134 1.086 58.134 1.086z" fill="#F0C419"/><path d="M79.677 22.433" class="s4"/><line x1="69.854" y1="12.807" x2="60.607" y2="22.433" class="s4"/><path d="M140.241 30.528l4.865 4.864 4.864 4.864h-9.729V30.528M136.226 20.833v23.439h23.441l-11.721-11.72L136.226 20.833 136.226 20.833z" fill="#F0C419"/><path d="M157.769 42.179" class="s4"/><line x1="147.946" y1="32.552" x2="138.7" y2="42.179" class="s4"/><line x1="60.607" y1="62.777" x2="79.677" y2="81.846" class="s4"/><path d="M77.559 64.516v15.407H62.15V64.516H77.559M81.574 60.5h-23.44v23.439h23.44V60.5L81.574 60.5z" fill="#F0C419"/><line x1="60.607" y1="62.777" x2="79.677" y2="81.846" class="s4"/><line x1="79.676" y1="62.777" x2="60.607" y2="81.846" class="s4"/><rect x="49.434" y="142.59" width="41.416" height="4.188" fill="#FFF"/><rect x="1.665" y="16.546" width="36.844" height="27.818" fill="#FFF"/><path d="M137.068 65.769c0 1.444-1.169 2.614-2.614 2.614h-5.011c-1.444 0-2.615-1.17-2.615-2.614v-8.715c0-1.444 1.171-2.615 2.615-2.615h5.011c1.445 0 2.614 1.17 2.614 2.615V65.769z" fill="#F0C419"/><path d="M137.828 73.381h-0.629c-0.077 2.729-2.31 4.922-5.06 4.922 -2.711 0-4.912-2.135-5.047-4.812 0.133-2.623 2.043-3.173 5.047-4.807l-0.19-1.602c-2.861 1.388-5.912 2.646-5.912 5.911 0 0.169 0.011 0.335 0.026 0.5 -0.016 0.165-0.026 0.331-0.026 0.501 0 3.265 2.646 5.911 5.912 5.911 3.265 0 5.911-2.646 5.911-5.911C137.86 73.786 137.85 73.582 137.828 73.381z" fill="#D0D8DC"/><path d="M131.554 79.865c2.888-0.195 5.186-2.445 5.459-5.311 -0.582 2.155-2.533 3.748-4.873 3.748 -0.137 0-0.265-0.028-0.397-0.038 -0.133 0.01-0.259 0.038-0.394 0.038 -2.711 0-4.911-2.135-5.046-4.812 0.133-2.623 2.041-3.173 5.046-4.807l-0.147-1.242c-2.62 1.262-5.164 2.57-5.164 5.551 0 0.169 0.011 0.335 0.026 0.5 -0.016 0.165-0.026 0.331-0.026 0.501C126.037 77.123 128.477 79.658 131.554 79.865z" class="s6"/><path d="M137.068 65.769c0 1.444-1.169 2.614-2.614 2.614h-5.011c-1.444 0-2.615-1.17-2.615-2.614v-8.715c0-1.444 1.171-2.615 2.615-2.615h5.011c1.445 0 2.614 1.17 2.614 2.615V65.769z" fill="#F0C419"/><path d="M137.039 66.069l-10.211-4.099v2.821l8.524 3.423C136.262 67.881 136.923 67.063 137.039 66.069z" fill="#FFF"/><path d="M135.476 54.646c-0.003-0.001-0.005-0.003-0.008-0.004L135.476 54.646z" fill="#D0D8DC"/><path d="M127.072 55.966c-0.153 0.332-0.244 0.698-0.244 1.087v1.528l10.24 4.112v-2.712L127.072 55.966z" fill="#FFF"/><path d="M137.068 65.769v-8.715c0-1.444-1.169-2.615-2.614-2.615h-2.521v13.944h2.521C135.899 68.383 137.068 67.213 137.068 65.769z" class="s6"/><rect x="118.646" y="42.855" width="26.605" height="2.832" fill="#D0D8DC"/><line x1="120.898" y1="45.688" x2="129.888" y2="54.439" class="s3"/><line x1="142.859" y1="45.688" x2="133.872" y2="54.439" class="s3"/><path d="M144.008 34.294l-3.745 3.899v-5.836h-4.037v5.373l-5.083-5.085 0.286-0.288h-5.196l0.288 0.288 -5.622 5.621v-5.908h-4.075v5.333l-5.046-5.045 0.287-0.288h-5.196l0.287 0.288 -5.681 5.681v-5.968h-4.552v5.393l-5.106-5.105 0.288-0.288h-5.196l0.287 0.288 -5.621 5.62v-5.908h-4.075v5.333l-5.046-5.045 0.287-0.288h-2.885v2.886l0.287-0.288 5.302 5.301h-5.589v4.347h5.772l-5.485 5.485 -0.287-0.287v5.196l0.288-0.288 5.302 5.301h-5.59v4.505h5.772L70.142 70l-0.287-0.287v5.196l0.287-0.287 5.3 5.3h-5.587v4.088h5.773l-5.486 5.485 -0.287-0.287v5.196l0.287-0.287 5.3 5.3h-5.587v4.163h5.773l-5.486 5.486 -0.287-0.288v5.196l0.287-0.287 5.3 5.3h-5.587v4.18h5.772l-5.485 5.484 -0.287-0.287v5.196l0.287-0.287 5.3 5.3h-5.587v8.205H90.85v-4.188h-9.275v-19.586 -3.854 -15.717 -3.87V83.938v-3.945V64.026 60.5 44.272h15.884 3.48 15.885 4.075 15.327 4.037 19.404l-10.565-10.564 0.023-0.024 -1.179-1.132 -0.195-0.195h-5.681L144.008 34.294zM77.559 136.068l-5.106-5.105 5.106-5.105V136.068zM77.559 116.482l-5.106-5.105 5.106-5.106V116.482zM77.559 96.912l-5.106-5.105 5.106-5.105V96.912zM77.559 77.417l-5.106-5.105 5.106-5.106V77.417zM77.559 57.504l-5.106-5.105 5.106-5.106V57.504zM84.205 40.256l5.301-5.301 5.302 5.301H84.205zM104.166 40.256l5.301-5.301 5.301 5.301H104.166zM123.529 40.256l5.302-5.301 5.301 5.301H123.529zM149.971 40.256h-7.159l3.508-3.651L149.971 40.256zM42.525 32.645v-5.682l5.681 5.682h4.622l5.105-5.105v5.105h4.217v-5.681l5.681 5.681h2.023v-2.598l-5.198-5.198h5.198V20.51H64.72l3.508-3.651 1.627 1.626v-5.679l-11.72-11.72v19.746H38.509v11.812H42.525zM62.15 10.782l3.766 3.766 -3.766 3.92V10.782zM56.002 24.848l-5.485 5.485 -5.485-5.485H56.002z" class="s7"/><polygon points="1.665 16.799 1.665 44.364 37.936 44.364 " class="s7"/><polygon points="38.509 16.673 38.509 44.238 2.238 44.238 " class="s7"/></svg>