<svg xmlns="http://www.w3.org/2000/svg" version="1.1" x="0px" y="0px" width="500px" height="500px" viewBox="0 0 500 500"><style>.s0{fill:#FFF;}.s1{fill:#D1D8DC;}.s2{fill:#010101;opacity:0.07;}.s3{fill:none;stroke-width:1.1358;stroke:#F2F2F2;}.s4{fill:none;stroke-linejoin:round;stroke-width:9.4617;stroke:#EFC41C;}.s5{fill:#EFC41C;}.s6{fill:#212121;opacity:0.1;}.s7{fill:#212121;opacity:0.07;}</style><polygon points="472.637 460.958 376.816 460.958 365.888 343.276 483.57 343.276 " fill="#FFF"/><rect x="373.995" y="285.411" transform="matrix(0.7071 0.7071 -0.7071 0.7071 336.5477 -228.5663)" width="140.366" height="13.11" fill="#D1D8DC"/><rect x="392.716" y="280.676" transform="matrix(0.7071 0.7071 -0.7071 0.7071 333.4927 -235.952)" width="117.684" height="7.798" fill="#FFF"/><polygon points="474.984 441.869 483.353 351.737 366.272 351.737 374.644 441.869 " fill="#43A9DF"/><path d="M418.621 384.391H405.08v-10.814h40.22v10.814h-13.608v35.641h-13.07V384.391z" fill="#FFF"/><polygon points="425.187 343.276 425.187 460.958 472.637 460.958 482.744 352.14 482.744 352.14 483.57 343.276 " class="s2"/><polygon points="490.408 328.932 495.923 323.42 454.645 282.139 439.854 296.93 489.158 346.229 498.423 336.955 " class="s2"/><line x1="165.092" y1="39.042" x2="402.936" y2="96.229" class="s3"/><line x1="165.092" y1="39.042" x2="397.441" y2="102.822" class="s3"/><line x1="108.258" y1="83.813" x2="165.092" y2="39.042" class="s3"/><line x1="1.561" y1="83.813" x2="165.092" y2="39.042" class="s3"/><line x1="172.254" y1="387.554" x2="227.48" y2="442.771" class="s4"/><path d="M221.346 392.581v44.621h-44.624v-44.621H221.346M232.974 380.952h-67.882v67.877h67.882V380.952L232.974 380.952z" fill="#EFC41C"/><line x1="172.254" y1="387.554" x2="227.48" y2="442.771" class="s4"/><line x1="227.476" y1="387.554" x2="172.254" y2="442.771" class="s4"/><path d="M221.346 335.858v44.624h-44.624v-44.624H221.346M232.974 324.227h-67.882v67.883h67.882V324.227L232.974 324.227z" fill="#EFC41C"/><line x1="172.254" y1="330.833" x2="227.48" y2="386.051" class="s4"/><line x1="227.476" y1="330.833" x2="172.254" y2="386.051" class="s4"/><path d="M221.346 279.187v44.621h-44.624v-44.621H221.346M232.974 267.555h-67.882v67.882h67.882V267.555L232.974 267.555z" fill="#EFC41C"/><line x1="172.254" y1="274.152" x2="227.48" y2="329.376" class="s4"/><line x1="227.476" y1="274.152" x2="172.254" y2="329.376" class="s4"/><path d="M221.346 165.066v44.618h-44.624v-44.618H221.346M232.974 153.436h-67.882v67.878h67.882V153.436L232.974 153.436z" fill="#EFC41C"/><line x1="172.254" y1="160.029" x2="227.48" y2="215.253" class="s4"/><line x1="227.476" y1="160.029" x2="172.254" y2="215.253" class="s4"/><path d="M221.346 107.859v44.617h-44.624v-44.617H221.346M232.974 96.229h-67.882v67.878h67.882V96.229L232.974 96.229z" fill="#EFC41C"/><line x1="172.254" y1="102.822" x2="227.48" y2="158.047" class="s4"/><line x1="227.476" y1="102.822" x2="172.254" y2="158.047" class="s4"/><path d="M277.423 107.859v44.617h-44.62v-44.617H277.423M289.049 96.229h-67.877v67.878h67.877V96.229L289.049 96.229z" fill="#EFC41C"/><line x1="228.334" y1="102.822" x2="283.557" y2="158.047" class="s4"/><line x1="283.557" y1="102.822" x2="228.332" y2="158.047" class="s4"/><path d="M335.226 107.859v44.617h-44.622v-44.617H335.226M346.854 96.229h-67.883v67.878h67.883V96.229L346.854 96.229z" fill="#EFC41C"/><line x1="286.142" y1="102.822" x2="341.36" y2="158.047" class="s4"/><line x1="341.36" y1="102.822" x2="286.142" y2="158.047" class="s4"/><path d="M391.304 107.859v44.617h-44.622v-44.617H391.304M402.936 96.229h-67.88v67.878h67.88V96.229L402.936 96.229z" fill="#EFC41C"/><line x1="342.217" y1="102.822" x2="397.441" y2="158.047" class="s4"/><line x1="397.441" y1="102.822" x2="342.214" y2="158.047" class="s4"/><path d="M164.51 107.859v44.617h-44.621v-44.617H164.51M176.141 96.229h-67.883v67.878h67.883V96.229L176.141 96.229z" fill="#EFC41C"/><line x1="115.423" y1="102.822" x2="170.643" y2="158.047" class="s4"/><line x1="170.643" y1="102.822" x2="115.421" y2="158.047" class="s4"/><path d="M176.722 67.12l14.087 14.088 14.085 14.082h-28.172V67.12M165.092 39.042v67.879h67.882l-33.941-33.938L165.092 39.042 165.092 39.042z" fill="#EFC41C"/><path d="M227.48 100.863" class="s4"/><line x1="199.032" y1="72.986" x2="172.254" y2="100.863" class="s4"/><path d="M402.87 124.305l14.087 14.087 14.09 14.085H402.87V124.305M391.244 96.229v67.878h67.883l-33.946-33.939L391.244 96.229 391.244 96.229z" fill="#EFC41C"/><path d="M453.632 158.047" class="s4"/><line x1="425.181" y1="130.168" x2="398.408" y2="158.047" class="s4"/><line x1="172.254" y1="217.696" x2="227.48" y2="272.919" class="s4"/><path d="M221.346 222.733v44.617h-44.624v-44.617H221.346M232.974 211.103h-67.882v67.88h67.882V211.103L232.974 211.103z" fill="#EFC41C"/><line x1="172.254" y1="217.696" x2="227.48" y2="272.919" class="s4"/><line x1="227.476" y1="217.696" x2="172.254" y2="272.919" class="s4"/><rect x="139.897" y="448.831" width="119.938" height="12.127" fill="#FFF"/><rect x="1.561" y="83.813" width="106.697" height="80.56" fill="#FFF"/><path d="M393.683 226.362c0 4.181-3.389 7.568-7.571 7.568h-14.511c-4.183 0-7.573-3.388-7.573-7.568v-25.238c0-4.183 3.391-7.573 7.573-7.573h14.511c4.183 0 7.571 3.388 7.571 7.573V226.362z" fill="#EFC41C"/><path d="M395.883 248.405h-1.822c-0.223 7.902-6.691 14.254-14.654 14.254 -7.851 0-14.225-6.183-14.615-13.937 0.384-7.594 5.916-9.187 14.615-13.921l-0.549-4.638c-8.287 4.021-17.121 7.664-17.121 17.118 0 0.49 0.031 0.97 0.074 1.448 -0.046 0.478-0.074 0.959-0.074 1.451 0 9.457 7.664 17.115 17.121 17.115 9.454 0 17.116-7.658 17.116-17.115C395.974 249.579 395.944 248.987 395.883 248.405z" fill="#D1D8DC"/><path d="M377.715 267.184c8.359-0.565 15.018-7.081 15.809-15.378 -1.686 6.238-7.336 10.854-14.111 10.854 -0.398 0-0.77-0.085-1.151-0.113 -0.388 0.028-0.749 0.113-1.14 0.113 -7.852 0-14.226-6.185-14.615-13.937 0.385-7.597 5.91-9.191 14.615-13.921l-0.428-3.597c-7.588 3.653-14.955 7.443-14.955 16.074 0 0.49 0.032 0.971 0.077 1.449 -0.048 0.475-0.077 0.955-0.077 1.45C361.736 259.243 368.801 266.585 377.715 267.184z" class="s6"/><path d="M393.683 226.362c0 4.181-3.389 7.568-7.571 7.568h-14.511c-4.183 0-7.573-3.388-7.573-7.568v-25.238c0-4.183 3.391-7.573 7.573-7.573h14.511c4.183 0 7.571 3.388 7.571 7.573V226.362z" fill="#EFC41C"/><path d="M393.597 227.229l-29.569-11.868v8.169l24.683 9.913C391.346 232.478 393.261 230.107 393.597 227.229z" fill="#FFF"/><path d="M389.073 194.149c-0.012-0.002-0.019-0.008-0.026-0.011L389.073 194.149z" fill="#D1D8DC"/><path d="M364.734 197.972c-0.444 0.962-0.707 2.022-0.707 3.149v4.425l29.655 11.907V209.6L364.734 197.972z" fill="#FFF"/><path d="M393.683 226.362v-25.238c0-4.183-3.389-7.573-7.571-7.573h-7.299v40.38h7.299C390.294 233.931 393.683 230.543 393.683 226.362z" class="s6"/><rect x="340.333" y="160.004" width="77.046" height="8.201" fill="#D1D8DC"/><line x1="346.854" y1="168.208" x2="372.891" y2="193.551" class="s3"/><line x1="410.452" y1="168.208" x2="384.426" y2="193.551" class="s3"/><path d="M413.778 135.211l-10.843 11.291v-16.9h-11.691v15.56l-14.723-14.726 0.831-0.834h-15.051l0.837 0.834 -16.284 16.279v-17.11h-11.799v15.444l-14.615-14.61 0.831-0.834h-15.045l0.831 0.834 -16.454 16.453v-17.284h-13.181v15.618l-14.789-14.784 0.838-0.834h-15.048l0.83 0.834 -16.277 16.276v-17.11h-11.802v15.444l-14.612-14.61 0.831-0.834h-8.355v8.358l0.832-0.835 15.354 15.352h-16.186v12.589h16.716l-15.884 15.884 -0.832-0.829v15.046l0.835-0.834 15.353 15.353h-16.188v13.046h16.716l-15.887 15.878 -0.832-0.831v15.048l0.832-0.831 15.348 15.348h-16.18v11.839h16.719l-15.887 15.886 -0.832-0.832v15.049l0.832-0.832 15.348 15.348h-16.18v12.057h16.719l-15.887 15.888 -0.832-0.837v15.051l0.832-0.831 15.348 15.346h-16.18v12.106h16.716l-15.884 15.88 -0.832-0.832v15.052l0.832-0.832 15.348 15.346h-16.18v23.761h60.8v-12.127h-26.858v-56.719 -11.16 -45.516 -11.21 -45.25 -11.422 -46.241 -10.211 -46.995h45.998 10.08 46.001 11.799 44.39 11.691 56.191l-30.597-30.593 0.067-0.069 -3.417-3.277 -0.563-0.566h-16.45L413.778 135.211zM221.346 429.945L206.56 415.16l14.786-14.784V429.945zM221.346 373.227L206.56 358.44l14.786-14.785V373.227zM221.346 316.551l-14.786-14.785 14.786-14.782V316.551zM221.346 260.094l-14.786-14.782 14.786-14.788V260.094zM221.346 202.427l-14.786-14.784 14.786-14.787V202.427zM240.593 152.477l15.351-15.351 15.356 15.351H240.593zM298.398 152.477l15.351-15.351 15.351 15.351H298.398zM354.474 152.477l15.354-15.351 15.351 15.351H354.474zM431.047 152.477h-20.729l10.158-10.573L431.047 152.477zM119.889 130.436V113.98l16.452 16.455h13.386l14.783-14.783v14.783h12.212v-16.452l16.452 16.452h5.858v-7.523l-15.054-15.053h15.054V95.294h-14.867l10.158-10.574 4.712 4.709V72.983l-33.941-33.941v57.184h-56.836v34.207h11.631V130.436zM176.722 67.12l10.906 10.907 -10.906 11.354V67.12zM158.918 107.856l-15.884 15.884 -15.885-15.884H158.918z" class="s7"/><polygon points="1.561 84.546 1.561 164.373 106.6 164.373 " class="s7"/><polygon points="108.258 84.182 108.258 164.008 3.219 164.008 " class="s7"/></svg>