<?xml version="1.0" encoding="utf-8"?>
<!-- Generator: Adobe Illustrator 16.0.0, SVG Export Plug-In . SVG Version: 6.00 Build 0)  -->
<!DOCTYPE svg PUBLIC "-//W3C//DTD SVG 1.1//EN" "http://www.w3.org/Graphics/SVG/1.1/DTD/svg11.dtd">
<svg version="1.1" id="Layer_1" xmlns="http://www.w3.org/2000/svg" xmlns:xlink="http://www.w3.org/1999/xlink" x="0px" y="0px"
	 width="147.905px" height="145px" viewBox="0 0 147.905 145" style="enable-background:new 0 0 147.905 145;" xml:space="preserve"
	>
<g>
	<g>
		<polygon style="fill:#FFFFFF;" points="124.883,145 24.638,145 13.201,21.879 136.32,21.879 		"/>
		<rect x="0.528" y="8.159" style="fill:#D0D8DC;" width="146.849" height="13.72"/>
		<rect x="12.393" style="fill:#FFFFFF;" width="123.119" height="8.159"/>
		<polygon style="fill:#44A9DF;" points="127.338,125.022 136.096,30.728 13.602,30.728 22.36,125.022 		"/>
		<g>
			<path style="fill:#FFFFFF;" d="M68.366,64.89H54.201V53.572h42.078V64.89H82.045v37.289H68.366V64.89z"/>
		</g>
	</g>
	<polygon style="opacity:0.07;" points="135.512,0 75.24,0 75.24,145 124.883,145 126.779,124.601 126.867,124.601 135.545,31.151 
		135.459,31.151 136.32,21.879 147.377,21.879 147.377,8.159 135.512,8.159 	"/>
</g>
</svg>
