<?xml version="1.0" encoding="utf-8"?>
<!-- Generator: Adobe Illustrator 16.0.0, SVG Export Plug-In . SVG Version: 6.00 Build 0)  -->
<!DOCTYPE svg PUBLIC "-//W3C//DTD SVG 1.1//EN" "http://www.w3.org/Graphics/SVG/1.1/DTD/svg11.dtd">
<svg version="1.1" id="Layer_1" xmlns="http://www.w3.org/2000/svg" xmlns:xlink="http://www.w3.org/1999/xlink" x="0px" y="0px"
	 width="240px" height="180px" viewBox="0 0 240 180" style="enable-background:new 0 0 240 180;" xml:space="preserve">
<g id="responsive">
	<g>
		<path style="fill:#ECF0F1;" d="M30.075,119.755v14.582c0,3.451,2.798,6.25,6.25,6.25h172.92c3.451,0,6.25-2.799,6.25-6.25v-14.582
			H30.075z"/>
		<path style="fill:#455B65;" d="M209.245,1H36.325c-3.452,0-6.25,2.799-6.25,6.25v112.504h185.42V7.25
			C215.495,3.799,212.696,1,209.245,1z"/>
		<rect x="35.153" y="9.349" style="fill:#ECF0F1;" width="175.267" height="102.057"/>
		<polygon style="fill:#D1D3D4;" points="145.571,165.328 95.961,165.328 99.086,140.587 142.446,140.587 		"/>
		<path style="fill:#38A4DD;" d="M52.991,22.166c0,2.115-1.715,3.827-3.827,3.827h-2.398c-2.112,0-3.827-1.712-3.827-3.827v-2.398
			c0-2.115,1.715-3.827,3.827-3.827h2.398c2.112,0,3.827,1.712,3.827,3.827V22.166z"/>
		<path style="fill:#D1D3D4;" d="M115.212,20.964c0,1.178-0.952,2.13-2.124,2.13H61.646c-1.172,0-2.125-0.953-2.125-2.13l0,0
			c0-1.172,0.953-2.124,2.125-2.124h51.441C114.26,18.84,115.212,19.792,115.212,20.964L115.212,20.964z"/>
		<path style="fill:#D1D3D4;" d="M201.262,20.964c0,1.178-0.952,2.13-2.124,2.13h-51.442c-1.172,0-2.124-0.953-2.124-2.13l0,0
			c0-1.172,0.952-2.124,2.124-2.124h51.442C200.31,18.84,201.262,19.792,201.262,20.964L201.262,20.964z"/>
		<path style="fill:#D1D3D4;" d="M77.705,81.122c0,1.178-0.596,2.13-1.325,2.13H44.263c-0.729,0-1.324-0.952-1.324-2.13l0,0
			c0-1.172,0.595-2.124,1.324-2.124H76.38C77.109,78.998,77.705,79.95,77.705,81.122L77.705,81.122z"/>
		<path style="fill:#D1D3D4;" d="M77.705,90.497c0,1.178-0.596,2.13-1.325,2.13H44.263c-0.729,0-1.324-0.952-1.324-2.13l0,0
			c0-1.172,0.595-2.124,1.324-2.124H76.38C77.109,88.373,77.705,89.325,77.705,90.497L77.705,90.497z"/>
		<path style="fill:#D1D3D4;" d="M77.705,99.872c0,1.178-0.596,2.13-1.325,2.13H44.263c-0.729,0-1.324-0.952-1.324-2.13l0,0
			c0-1.172,0.595-2.124,1.324-2.124H76.38C77.109,97.748,77.705,98.7,77.705,99.872L77.705,99.872z"/>
		<path style="fill:#D1D3D4;" d="M160.024,165.328c0,0.54-0.436,0.977-0.977,0.977H82.484c-0.541,0-0.977-0.437-0.977-0.977l0,0
			c0-0.54,0.436-0.977,0.977-0.977h76.563C159.589,164.352,160.024,164.788,160.024,165.328L160.024,165.328z"/>
		<path style="fill:#455B65;" d="M77.705,65.716c0,3.452-2.799,6.25-6.25,6.25H49.188c-3.452,0-6.25-2.799-6.25-6.25V43.45
			c0-3.452,2.798-6.25,6.25-6.25h22.267c3.451,0,6.25,2.798,6.25,6.25V65.716z"/>
		<path style="fill:#D1D3D4;" d="M140.206,81.122c0,1.178-0.595,2.13-1.324,2.13h-32.117c-0.729,0-1.325-0.952-1.325-2.13l0,0
			c0-1.172,0.596-2.124,1.325-2.124h32.117C139.611,78.998,140.206,79.95,140.206,81.122L140.206,81.122z"/>
		<path style="fill:#D1D3D4;" d="M140.206,90.497c0,1.178-0.595,2.13-1.324,2.13h-32.117c-0.729,0-1.325-0.952-1.325-2.13l0,0
			c0-1.172,0.596-2.124,1.325-2.124h32.117C139.611,88.373,140.206,89.325,140.206,90.497L140.206,90.497z"/>
		<path style="fill:#D1D3D4;" d="M140.206,99.872c0,1.178-0.595,2.13-1.324,2.13h-32.117c-0.729,0-1.325-0.952-1.325-2.13l0,0
			c0-1.172,0.596-2.124,1.325-2.124h32.117C139.611,97.748,140.206,98.7,140.206,99.872L140.206,99.872z"/>
		<path style="fill:#38A4DD;" d="M140.206,65.716c0,3.452-2.799,6.25-6.25,6.25H111.69c-3.452,0-6.251-2.799-6.251-6.25V43.45
			c0-3.452,2.799-6.25,6.251-6.25h22.266c3.451,0,6.25,2.798,6.25,6.25V65.716z"/>
		<path style="fill:#D1D3D4;" d="M202.708,81.122c0,1.178-0.596,2.13-1.324,2.13h-32.118c-0.729,0-1.324-0.952-1.324-2.13l0,0
			c0-1.172,0.595-2.124,1.324-2.124h32.118C202.112,78.998,202.708,79.95,202.708,81.122L202.708,81.122z"/>
		<path style="fill:#D1D3D4;" d="M202.708,90.497c0,1.178-0.596,2.13-1.324,2.13h-32.118c-0.729,0-1.324-0.952-1.324-2.13l0,0
			c0-1.172,0.595-2.124,1.324-2.124h32.118C202.112,88.373,202.708,89.325,202.708,90.497L202.708,90.497z"/>
		<path style="fill:#D1D3D4;" d="M202.708,99.872c0,1.178-0.596,2.13-1.324,2.13h-32.118c-0.729,0-1.324-0.952-1.324-2.13l0,0
			c0-1.172,0.595-2.124,1.324-2.124h32.118C202.112,97.748,202.708,98.7,202.708,99.872L202.708,99.872z"/>
		<path style="fill:#455B65;" d="M202.708,65.716c0,3.452-2.799,6.25-6.25,6.25h-22.267c-3.451,0-6.25-2.799-6.25-6.25V43.45
			c0-3.452,2.799-6.25,6.25-6.25h22.267c3.451,0,6.25,2.798,6.25,6.25V65.716z"/>
	</g>
	<g>
		<path style="fill:#455B65;" d="M81.239,172.75c0,3.452-2.796,6.25-6.251,6.25H19.909c-3.448,0-6.25-2.798-6.25-6.25V98.92
			c0-3.451,2.802-6.25,6.25-6.25h55.079c3.455,0,6.251,2.799,6.251,6.25V172.75z"/>
		<rect x="19.909" y="97.791" style="fill:#ECF0F1;" width="55.079" height="76.174"/>
		<path style="fill:#38A4DD;" d="M30.014,105.799c0,1.395-1.129,2.523-2.523,2.523h-1.581c-1.392,0-2.524-1.129-2.524-2.523v-1.581
			c0-1.395,1.133-2.523,2.524-2.523h1.581c1.395,0,2.523,1.129,2.523,2.523V105.799z"/>
		<path style="fill:#D1D3D4;" d="M71.049,105.006c0,0.777-0.629,1.403-1.4,1.403H35.724c-0.775,0-1.4-0.626-1.4-1.403l0,0
			c0-0.772,0.625-1.401,1.4-1.401h33.925C70.42,103.604,71.049,104.233,71.049,105.006L71.049,105.006z"/>
		<path style="fill:#D1D3D4;" d="M45.282,145.388c0,0.769-0.391,1.395-0.867,1.395H23.389c-0.477,0-0.867-0.626-0.867-1.395l0,0
			c0-0.77,0.391-1.392,0.867-1.392h21.026C44.892,143.996,45.282,144.618,45.282,145.388L45.282,145.388z"/>
		<path style="fill:#D1D3D4;" d="M45.282,151.524c0,0.772-0.391,1.395-0.867,1.395H23.389c-0.477,0-0.867-0.622-0.867-1.395l0,0
			c0-0.769,0.391-1.392,0.867-1.392h21.026C44.892,150.133,45.282,150.756,45.282,151.524L45.282,151.524z"/>
		<path style="fill:#D1D3D4;" d="M45.282,157.662c0,0.771-0.391,1.395-0.867,1.395H23.389c-0.477,0-0.867-0.623-0.867-1.395l0,0
			c0-0.767,0.391-1.392,0.867-1.392h21.026C44.892,156.271,45.282,156.896,45.282,157.662L45.282,157.662z"/>
		<path style="fill:#455B65;" d="M45.282,135.301c0,2.259-1.831,4.093-4.093,4.093H26.614c-2.262,0-4.093-1.834-4.093-4.093v-14.575
			c0-2.262,1.831-4.093,4.093-4.093h14.575c2.262,0,4.093,1.831,4.093,4.093V135.301z"/>
		<path style="fill:#D1D3D4;" d="M73.408,145.388c0,0.769-0.391,1.395-0.867,1.395H51.514c-0.476,0-0.866-0.626-0.866-1.395l0,0
			c0-0.77,0.391-1.392,0.866-1.392h21.027C73.018,143.996,73.408,144.618,73.408,145.388L73.408,145.388z"/>
		<path style="fill:#D1D3D4;" d="M73.408,151.524c0,0.772-0.391,1.395-0.867,1.395H51.514c-0.476,0-0.866-0.622-0.866-1.395l0,0
			c0-0.769,0.391-1.392,0.866-1.392h21.027C73.018,150.133,73.408,150.756,73.408,151.524L73.408,151.524z"/>
		<path style="fill:#D1D3D4;" d="M73.408,157.662c0,0.771-0.391,1.395-0.867,1.395H51.514c-0.476,0-0.866-0.623-0.866-1.395l0,0
			c0-0.767,0.391-1.392,0.866-1.392h21.027C73.018,156.271,73.408,156.896,73.408,157.662L73.408,157.662z"/>
		<path style="fill:#38A4DD;" d="M73.408,135.301c0,2.259-1.831,4.093-4.093,4.093H54.739c-2.261,0-4.092-1.834-4.092-4.093v-14.575
			c0-2.262,1.831-4.093,4.092-4.093h14.576c2.262,0,4.093,1.831,4.093,4.093V135.301z"/>
	</g>
	<g>
		<path style="fill:#455B65;" d="M226.341,171.328c0,3.451-2.801,6.25-6.25,6.25h-23.444c-3.454,0-6.25-2.799-6.25-6.25v-53.228
			c0-3.451,2.796-6.25,6.25-6.25h23.444c3.449,0,6.25,2.799,6.25,6.25V171.328z"/>
		<rect x="194.498" y="117.222" style="fill:#ECF0F1;" width="27.735" height="54.988"/>
		<path style="fill:#38A4DD;" d="M204.478,123.896c0,1.395-1.129,2.523-2.523,2.523h-1.581c-1.392,0-2.523-1.129-2.523-2.523v-1.581
			c0-1.395,1.132-2.524,2.523-2.524h1.581c1.395,0,2.523,1.13,2.523,2.524V123.896z"/>
		<path style="fill:#D1D3D4;" d="M219.746,160.359c0,0.77-0.391,1.395-0.866,1.395h-21.027c-0.477,0-0.867-0.625-0.867-1.395l0,0
			c0-0.769,0.391-1.392,0.867-1.392h21.027C219.355,158.968,219.746,159.591,219.746,160.359L219.746,160.359z"/>
		<path style="fill:#D1D3D4;" d="M219.746,122.858c0,0.77-0.128,1.395-0.283,1.395h-6.861c-0.155,0-0.283-0.625-0.283-1.395l0,0
			c0-0.769,0.128-1.392,0.283-1.392h6.861C219.618,121.467,219.746,122.09,219.746,122.858L219.746,122.858z"/>
		<path style="fill:#D1D3D4;" d="M219.746,166.497c0,0.771-0.391,1.395-0.866,1.395h-21.027c-0.477,0-0.867-0.623-0.867-1.395l0,0
			c0-0.77,0.391-1.392,0.867-1.392h21.027C219.355,165.105,219.746,165.728,219.746,166.497L219.746,166.497z"/>
		<path style="fill:#455B65;" d="M219.746,150.273c0,2.258-1.831,4.093-4.093,4.093h-14.575c-2.262,0-4.093-1.835-4.093-4.093
			v-14.576c0-2.261,1.831-4.092,4.093-4.092h14.575c2.262,0,4.093,1.831,4.093,4.092V150.273z"/>
	</g>
</g>
</svg>
